<svg xmlns="http://www.w3.org/2000/svg" viewBox="0 0 2783.58 768">
    <path id="b06723c7-a63e-4af5-9557-32e43ad63c77" data-name="path1228" fill="#000" d="M506,0,0,357.06,62.58,768,449.76,616.73Zm2277.6,54.86-420,38.4L2707.05,99l-21.56,80.47ZM446.27,103.44,402.7,581.35l-300,117.22L54.17,380.13Zm1380.11,21.64c-141.7,0-260.81,113-260.81,260.81,0,143.75,116.37,264.92,260.13,264.92,78.72,0,173.87-35.6,230-134.86h-91C1929.75,557,1879.78,583,1826.38,583c-99.26,0-186.88-87.62-186.88-196.47,0-106.78,82.83-193.72,188.25-193.72,82.15,0,127.32,54.08,142.38,71.19h89c-13-22.59-32.18-56.81-78-89.67C1926.32,134.66,1864.72,125.08,1826.38,125.08Zm-1090,9.58V641.22h73.93V406.43h1.37l167,234.79h92.41L929.44,452.29c32.86,0,145.12-21.22,145.12-155.39,0-42.44-14.37-89-46.55-119.79-26.69-25.33-63.66-42.45-134.85-42.45Zm563.21,0L1107.25,641.22h78l82.14-217,65-193.72h1.37l64.35,193.72,81.46,217h78.72L1366,134.66Zm98.57,289.56H1267.43l65,67.77Zm681-289.56v67.77h97.2V641.22h73.94V202.43h97.2V134.66Zm317.8,0V641.22h73.93v-219H2653V354.4H2470.88v-152H2653V134.66ZM405.49,174.11,126.9,370.82,369.77,236l17.43,65.08Zm404.84,28.32h78c83.51,0,112.26,52,112.26,94.47,0,97.89-109.53,99.26-139.65,99.26H810.33ZM138,542.22l5.52,85.71,142.06-55.5L167.3,586.67ZM691.38,609,670.55,713.14,858,692.31,712.21,671.49Z"/>
</svg>
