<?xml version="1.0" encoding="UTF-8" standalone="no"?>
<!DOCTYPE svg PUBLIC "-//W3C//DTD SVG 1.1//EN"
 "http://www.w3.org/Graphics/SVG/1.1/DTD/svg11.dtd">
<!-- Generated by graphviz version 2.46.0 (20210119.1425)
 -->
<!-- Title: dependencies Pages: 1 -->
<svg width="1698pt" height="284pt"
 viewBox="0.00 0.00 1698.00 284.00" xmlns="http://www.w3.org/2000/svg" xmlns:xlink="http://www.w3.org/1999/xlink">
<g id="graph0" class="graph" transform="scale(1 1) rotate(0) translate(4 280)">
<title>dependencies</title>
<polygon fill="white" stroke="transparent" points="-4,4 -4,-280 1694,-280 1694,4 -4,4"/>
<text text-anchor="start" x="824.01" y="-42.4" font-family="sans-serif" font-weight="bold" font-size="14.00">Legend</text>
<polygon fill="#ffffb3" stroke="transparent" points="611,-10 611,-30 631,-30 631,-10 611,-10"/>
<text text-anchor="start" x="634.63" y="-15.4" font-family="sans-serif" font-size="14.00"> &#160;Declarations</text>
<polygon fill="#8dd3c7" stroke="transparent" points="724,-10 724,-30 744,-30 744,-10 724,-10"/>
<text text-anchor="start" x="747.73" y="-15.4" font-family="sans-serif" font-size="14.00"> &#160;Module</text>
<polygon fill="#80b1d3" stroke="transparent" points="810,-10 810,-30 830,-30 830,-10 810,-10"/>
<text text-anchor="start" x="833.78" y="-15.4" font-family="sans-serif" font-size="14.00"> &#160;Bootstrap</text>
<polygon fill="#fdb462" stroke="transparent" points="907,-10 907,-30 927,-30 927,-10 907,-10"/>
<text text-anchor="start" x="930.67" y="-15.4" font-family="sans-serif" font-size="14.00"> &#160;Providers</text>
<polygon fill="#fb8072" stroke="transparent" points="1003,-10 1003,-30 1023,-30 1023,-10 1003,-10"/>
<text text-anchor="start" x="1026.73" y="-15.4" font-family="sans-serif" font-size="14.00"> &#160;Exports</text>
<g id="clust1" class="cluster">
<title>cluster_SharedModule</title>
<polygon fill="none" stroke="black" stroke-dasharray="1,5" points="8,-70 8,-268 1682,-268 1682,-70 8,-70"/>
</g>
<g id="clust2" class="cluster">
<title>cluster_SharedModule_declarations</title>
<polygon fill="none" stroke="black" points="193,-78 193,-130 1674,-130 1674,-78 193,-78"/>
</g>
<g id="clust12" class="cluster">
<title>cluster_SharedModule_exports</title>
<polygon fill="none" stroke="black" points="16,-208 16,-260 1674,-260 1674,-208 16,-208"/>
</g>
<g id="clust11" class="cluster">
<title>cluster_SharedModule_imports</title>
<polygon fill="none" stroke="black" points="41,-78 41,-130 185,-130 185,-78 41,-78"/>
</g>
<!-- AuthorCardComponent -->
<g id="node1" class="node">
<title>AuthorCardComponent</title>
<polygon fill="#ffffb3" stroke="black" points="1666.2,-122 1517.8,-122 1517.8,-86 1666.2,-86 1666.2,-122"/>
<text text-anchor="middle" x="1592" y="-99.8" font-family="Times,serif" font-size="14.00">AuthorCardComponent</text>
</g>
<!-- SharedModule -->
<g id="node9" class="node">
<title>SharedModule</title>
<polygon fill="#8dd3c7" stroke="black" points="992.42,-187 989.42,-191 968.42,-191 965.42,-187 893.58,-187 893.58,-151 992.42,-151 992.42,-187"/>
<text text-anchor="middle" x="943" y="-164.8" font-family="Times,serif" font-size="14.00">SharedModule</text>
</g>
<!-- AuthorCardComponent&#45;&gt;SharedModule -->
<g id="edge1" class="edge">
<title>AuthorCardComponent&#45;&gt;SharedModule</title>
<path fill="none" stroke="black" d="M1525.88,-122.22C1525.88,-140.83 1525.88,-167 1525.88,-167 1525.88,-167 1002.44,-167 1002.44,-167"/>
<polygon fill="black" stroke="black" points="1002.44,-163.5 992.44,-167 1002.44,-170.5 1002.44,-163.5"/>
</g>
<!-- PostBodyComponent -->
<g id="node2" class="node">
<title>PostBodyComponent</title>
<polygon fill="#ffffb3" stroke="black" points="1499.79,-122 1364.21,-122 1364.21,-86 1499.79,-86 1499.79,-122"/>
<text text-anchor="middle" x="1432" y="-99.8" font-family="Times,serif" font-size="14.00">PostBodyComponent</text>
</g>
<!-- PostBodyComponent&#45;&gt;SharedModule -->
<g id="edge2" class="edge">
<title>PostBodyComponent&#45;&gt;SharedModule</title>
<path fill="none" stroke="black" d="M1454.65,-122.02C1454.65,-139.37 1454.65,-163 1454.65,-163 1454.65,-163 1002.52,-163 1002.52,-163"/>
<polygon fill="black" stroke="black" points="1002.52,-159.5 992.52,-163 1002.52,-166.5 1002.52,-159.5"/>
</g>
<!-- PostComponent -->
<g id="node3" class="node">
<title>PostComponent</title>
<polygon fill="#ffffb3" stroke="black" points="1345.95,-122 1240.05,-122 1240.05,-86 1345.95,-86 1345.95,-122"/>
<text text-anchor="middle" x="1293" y="-99.8" font-family="Times,serif" font-size="14.00">PostComponent</text>
</g>
<!-- PostComponent&#45;&gt;SharedModule -->
<g id="edge3" class="edge">
<title>PostComponent&#45;&gt;SharedModule</title>
<path fill="none" stroke="black" d="M1293,-122.01C1293,-138.05 1293,-159 1293,-159 1293,-159 1002.4,-159 1002.4,-159"/>
<polygon fill="black" stroke="black" points="1002.4,-155.5 992.4,-159 1002.4,-162.5 1002.4,-155.5"/>
</g>
<!-- PostInventoryDisplayComponent -->
<g id="node4" class="node">
<title>PostInventoryDisplayComponent</title>
<polygon fill="#ffffb3" stroke="black" points="1222.92,-122 1019.08,-122 1019.08,-86 1222.92,-86 1222.92,-122"/>
<text text-anchor="middle" x="1121" y="-99.8" font-family="Times,serif" font-size="14.00">PostInventoryDisplayComponent</text>
</g>
<!-- PostInventoryDisplayComponent&#45;&gt;SharedModule -->
<g id="edge4" class="edge">
<title>PostInventoryDisplayComponent&#45;&gt;SharedModule</title>
<path fill="none" stroke="black" d="M1040.88,-122.12C1040.88,-136.78 1040.88,-155 1040.88,-155 1040.88,-155 1002.22,-155 1002.22,-155"/>
<polygon fill="black" stroke="black" points="1002.22,-151.5 992.22,-155 1002.22,-158.5 1002.22,-151.5"/>
</g>
<!-- PostSidebarComponent -->
<g id="node5" class="node">
<title>PostSidebarComponent</title>
<polygon fill="#ffffb3" stroke="black" points="1001.21,-122 852.79,-122 852.79,-86 1001.21,-86 1001.21,-122"/>
<text text-anchor="middle" x="927" y="-99.8" font-family="Times,serif" font-size="14.00">PostSidebarComponent</text>
</g>
<!-- PostSidebarComponent&#45;&gt;SharedModule -->
<g id="edge5" class="edge">
<title>PostSidebarComponent&#45;&gt;SharedModule</title>
<path fill="none" stroke="black" d="M943,-122.11C943,-122.11 943,-140.99 943,-140.99"/>
<polygon fill="black" stroke="black" points="939.5,-140.99 943,-150.99 946.5,-140.99 939.5,-140.99"/>
</g>
<!-- PostsCardCompactComponent -->
<g id="node6" class="node">
<title>PostsCardCompactComponent</title>
<polygon fill="#ffffb3" stroke="black" points="835.15,-122 646.85,-122 646.85,-86 835.15,-86 835.15,-122"/>
<text text-anchor="middle" x="741" y="-99.8" font-family="Times,serif" font-size="14.00">PostsCardCompactComponent</text>
</g>
<!-- PostsCardCompactComponent&#45;&gt;SharedModule -->
<g id="edge6" class="edge">
<title>PostsCardCompactComponent&#45;&gt;SharedModule</title>
<path fill="none" stroke="black" d="M735.87,-122.12C735.87,-136.78 735.87,-155 735.87,-155 735.87,-155 883.65,-155 883.65,-155"/>
<polygon fill="black" stroke="black" points="883.65,-158.5 893.65,-155 883.65,-151.5 883.65,-158.5"/>
</g>
<!-- PostsCardCompactHeaderComponent -->
<g id="node7" class="node">
<title>PostsCardCompactHeaderComponent</title>
<polygon fill="#ffffb3" stroke="black" points="628.56,-122 399.44,-122 399.44,-86 628.56,-86 628.56,-122"/>
<text text-anchor="middle" x="514" y="-99.8" font-family="Times,serif" font-size="14.00">PostsCardCompactHeaderComponent</text>
</g>
<!-- PostsCardCompactHeaderComponent&#45;&gt;SharedModule -->
<g id="edge7" class="edge">
<title>PostsCardCompactHeaderComponent&#45;&gt;SharedModule</title>
<path fill="none" stroke="black" d="M552.23,-122.01C552.23,-138.05 552.23,-159 552.23,-159 552.23,-159 883.51,-159 883.51,-159"/>
<polygon fill="black" stroke="black" points="883.51,-162.5 893.51,-159 883.51,-155.5 883.51,-162.5"/>
</g>
<!-- PostsCardNormalComponent -->
<g id="node8" class="node">
<title>PostsCardNormalComponent</title>
<polygon fill="#ffffb3" stroke="black" points="381.37,-122 200.63,-122 200.63,-86 381.37,-86 381.37,-122"/>
<text text-anchor="middle" x="291" y="-99.8" font-family="Times,serif" font-size="14.00">PostsCardNormalComponent</text>
</g>
<!-- PostsCardNormalComponent&#45;&gt;SharedModule -->
<g id="edge8" class="edge">
<title>PostsCardNormalComponent&#45;&gt;SharedModule</title>
<path fill="none" stroke="black" d="M303.58,-122.02C303.58,-139.37 303.58,-163 303.58,-163 303.58,-163 883.62,-163 883.62,-163"/>
<polygon fill="black" stroke="black" points="883.62,-166.5 893.62,-163 883.62,-159.5 883.62,-166.5"/>
</g>
<!-- AppRoutingModule  -->
<g id="node11" class="node">
<title>AppRoutingModule </title>
<polygon fill="#fb8072" stroke="black" points="1666.27,-252 1533.73,-252 1533.73,-216 1666.27,-216 1666.27,-252"/>
<text text-anchor="middle" x="1600" y="-229.8" font-family="Times,serif" font-size="14.00">AppRoutingModule </text>
</g>
<!-- SharedModule&#45;&gt;AppRoutingModule  -->
<g id="edge10" class="edge">
<title>SharedModule&#45;&gt;AppRoutingModule </title>
<path fill="none" stroke="black" stroke-dasharray="5,2" d="M992.38,-171C1145.17,-171 1599.98,-171 1599.98,-171 1599.98,-171 1599.98,-205.78 1599.98,-205.78"/>
<polygon fill="black" stroke="black" points="1596.48,-205.78 1599.98,-215.78 1603.48,-205.78 1596.48,-205.78"/>
</g>
<!-- AuthorCardComponent  -->
<g id="node12" class="node">
<title>AuthorCardComponent </title>
<polygon fill="#fb8072" stroke="black" points="1515.7,-252 1364.3,-252 1364.3,-216 1515.7,-216 1515.7,-252"/>
<text text-anchor="middle" x="1440" y="-229.8" font-family="Times,serif" font-size="14.00">AuthorCardComponent </text>
</g>
<!-- SharedModule&#45;&gt;AuthorCardComponent  -->
<g id="edge11" class="edge">
<title>SharedModule&#45;&gt;AuthorCardComponent </title>
<path fill="none" stroke="black" stroke-dasharray="5,2" d="M992.47,-175C1112.5,-175 1409.4,-175 1409.4,-175 1409.4,-175 1409.4,-205.98 1409.4,-205.98"/>
<polygon fill="black" stroke="black" points="1405.9,-205.98 1409.4,-215.98 1412.9,-205.98 1405.9,-205.98"/>
</g>
<!-- PostBodyComponent  -->
<g id="node13" class="node">
<title>PostBodyComponent </title>
<polygon fill="#fb8072" stroke="black" points="1346.79,-252 1207.21,-252 1207.21,-216 1346.79,-216 1346.79,-252"/>
<text text-anchor="middle" x="1277" y="-229.8" font-family="Times,serif" font-size="14.00">PostBodyComponent </text>
</g>
<!-- SharedModule&#45;&gt;PostBodyComponent  -->
<g id="edge12" class="edge">
<title>SharedModule&#45;&gt;PostBodyComponent </title>
<path fill="none" stroke="black" stroke-dasharray="5,2" d="M992.26,-179C1070.66,-179 1215.03,-179 1215.03,-179 1215.03,-179 1215.03,-205.99 1215.03,-205.99"/>
<polygon fill="black" stroke="black" points="1211.53,-205.99 1215.03,-215.99 1218.53,-205.99 1211.53,-205.99"/>
</g>
<!-- PostComponent  -->
<g id="node14" class="node">
<title>PostComponent </title>
<polygon fill="#fb8072" stroke="black" points="1189.45,-252 1080.55,-252 1080.55,-216 1189.45,-216 1189.45,-252"/>
<text text-anchor="middle" x="1135" y="-229.8" font-family="Times,serif" font-size="14.00">PostComponent </text>
</g>
<!-- SharedModule&#45;&gt;PostComponent  -->
<g id="edge13" class="edge">
<title>SharedModule&#45;&gt;PostComponent </title>
<path fill="none" stroke="black" stroke-dasharray="5,2" d="M992.44,-183C1049.33,-183 1135,-183 1135,-183 1135,-183 1135,-205.88 1135,-205.88"/>
<polygon fill="black" stroke="black" points="1131.5,-205.88 1135,-215.88 1138.5,-205.88 1131.5,-205.88"/>
</g>
<!-- PostInventoryDisplayComponent  -->
<g id="node15" class="node">
<title>PostInventoryDisplayComponent </title>
<polygon fill="#fb8072" stroke="black" points="1062.42,-252 855.58,-252 855.58,-216 1062.42,-216 1062.42,-252"/>
<text text-anchor="middle" x="959" y="-229.8" font-family="Times,serif" font-size="14.00">PostInventoryDisplayComponent </text>
</g>
<!-- SharedModule&#45;&gt;PostInventoryDisplayComponent  -->
<g id="edge14" class="edge">
<title>SharedModule&#45;&gt;PostInventoryDisplayComponent </title>
<path fill="none" stroke="black" stroke-dasharray="5,2" d="M943,-187.11C943,-187.11 943,-205.99 943,-205.99"/>
<polygon fill="black" stroke="black" points="939.5,-205.99 943,-215.99 946.5,-205.99 939.5,-205.99"/>
</g>
<!-- PostSidebarComponent  -->
<g id="node16" class="node">
<title>PostSidebarComponent </title>
<polygon fill="#fb8072" stroke="black" points="837.71,-252 686.29,-252 686.29,-216 837.71,-216 837.71,-252"/>
<text text-anchor="middle" x="762" y="-229.8" font-family="Times,serif" font-size="14.00">PostSidebarComponent </text>
</g>
<!-- SharedModule&#45;&gt;PostSidebarComponent  -->
<g id="edge15" class="edge">
<title>SharedModule&#45;&gt;PostSidebarComponent </title>
<path fill="none" stroke="black" stroke-dasharray="5,2" d="M893.63,-183C847.47,-183 785.6,-183 785.6,-183 785.6,-183 785.6,-205.88 785.6,-205.88"/>
<polygon fill="black" stroke="black" points="782.1,-205.88 785.6,-215.88 789.1,-205.88 782.1,-205.88"/>
</g>
<!-- PostsCardCompactComponent  -->
<g id="node17" class="node">
<title>PostsCardCompactComponent </title>
<polygon fill="#fb8072" stroke="black" points="668.15,-252 475.85,-252 475.85,-216 668.15,-216 668.15,-252"/>
<text text-anchor="middle" x="572" y="-229.8" font-family="Times,serif" font-size="14.00">PostsCardCompactComponent </text>
</g>
<!-- SharedModule&#45;&gt;PostsCardCompactComponent  -->
<g id="edge16" class="edge">
<title>SharedModule&#45;&gt;PostsCardCompactComponent </title>
<path fill="none" stroke="black" stroke-dasharray="5,2" d="M893.57,-179C811.82,-179 657.38,-179 657.38,-179 657.38,-179 657.38,-205.99 657.38,-205.99"/>
<polygon fill="black" stroke="black" points="653.88,-205.99 657.38,-215.99 660.88,-205.99 653.88,-205.99"/>
</g>
<!-- PostsCardCompactHeaderComponent  -->
<g id="node18" class="node">
<title>PostsCardCompactHeaderComponent </title>
<polygon fill="#fb8072" stroke="black" points="458.07,-252 225.93,-252 225.93,-216 458.07,-216 458.07,-252"/>
<text text-anchor="middle" x="342" y="-229.8" font-family="Times,serif" font-size="14.00">PostsCardCompactHeaderComponent </text>
</g>
<!-- SharedModule&#45;&gt;PostsCardCompactHeaderComponent  -->
<g id="edge17" class="edge">
<title>SharedModule&#45;&gt;PostsCardCompactHeaderComponent </title>
<path fill="none" stroke="black" stroke-dasharray="5,2" d="M893.7,-175C765.02,-175 428.88,-175 428.88,-175 428.88,-175 428.88,-205.98 428.88,-205.98"/>
<polygon fill="black" stroke="black" points="425.38,-205.98 428.88,-215.98 432.38,-205.98 425.38,-205.98"/>
</g>
<!-- PostsCardNormalComponent  -->
<g id="node19" class="node">
<title>PostsCardNormalComponent </title>
<polygon fill="#fb8072" stroke="black" points="208.37,-252 23.63,-252 23.63,-216 208.37,-216 208.37,-252"/>
<text text-anchor="middle" x="116" y="-229.8" font-family="Times,serif" font-size="14.00">PostsCardNormalComponent </text>
</g>
<!-- SharedModule&#45;&gt;PostsCardNormalComponent  -->
<g id="edge18" class="edge">
<title>SharedModule&#45;&gt;PostsCardNormalComponent </title>
<path fill="none" stroke="black" stroke-dasharray="5,2" d="M893.68,-171C728.39,-171 204.38,-171 204.38,-171 204.38,-171 204.38,-205.78 204.38,-205.78"/>
<polygon fill="black" stroke="black" points="200.88,-205.78 204.38,-215.78 207.88,-205.78 200.88,-205.78"/>
</g>
<!-- AppRoutingModule -->
<g id="node10" class="node">
<title>AppRoutingModule</title>
<polygon fill="#8dd3c7" stroke="black" points="177.27,-122 174.27,-126 153.27,-126 150.27,-122 48.73,-122 48.73,-86 177.27,-86 177.27,-122"/>
<text text-anchor="middle" x="113" y="-99.8" font-family="Times,serif" font-size="14.00">AppRoutingModule</text>
</g>
<!-- AppRoutingModule&#45;&gt;SharedModule -->
<g id="edge9" class="edge">
<title>AppRoutingModule&#45;&gt;SharedModule</title>
<path fill="none" stroke="black" d="M113,-122.22C113,-140.83 113,-167 113,-167 113,-167 883.57,-167 883.57,-167"/>
<polygon fill="black" stroke="black" points="883.57,-170.5 893.57,-167 883.57,-163.5 883.57,-170.5"/>
</g>
</g>
</svg>
