<?xml version="1.0" encoding="UTF-8" standalone="no"?>
<!DOCTYPE svg PUBLIC "-//W3C//DTD SVG 1.1//EN"
 "http://www.w3.org/Graphics/SVG/1.1/DTD/svg11.dtd">
<!-- Generated by graphviz version 2.46.0 (20210119.1425)
 -->
<!-- Title: dependencies Pages: 1 -->
<svg width="504pt" height="211pt"
 viewBox="0.00 0.00 504.00 211.00" xmlns="http://www.w3.org/2000/svg" xmlns:xlink="http://www.w3.org/1999/xlink">
<g id="graph0" class="graph" transform="scale(1 1) rotate(0) translate(4 207)">
<title>dependencies</title>
<polygon fill="white" stroke="transparent" points="-4,4 -4,-207 500,-207 500,4 -4,4"/>
<text text-anchor="start" x="227.01" y="-42.4" font-family="sans-serif" font-weight="bold" font-size="14.00">Legend</text>
<polygon fill="#ffffb3" stroke="transparent" points="14,-10 14,-30 34,-30 34,-10 14,-10"/>
<text text-anchor="start" x="37.63" y="-15.4" font-family="sans-serif" font-size="14.00"> &#160;Declarations</text>
<polygon fill="#8dd3c7" stroke="transparent" points="127,-10 127,-30 147,-30 147,-10 127,-10"/>
<text text-anchor="start" x="150.73" y="-15.4" font-family="sans-serif" font-size="14.00"> &#160;Module</text>
<polygon fill="#80b1d3" stroke="transparent" points="213,-10 213,-30 233,-30 233,-10 213,-10"/>
<text text-anchor="start" x="236.78" y="-15.4" font-family="sans-serif" font-size="14.00"> &#160;Bootstrap</text>
<polygon fill="#fdb462" stroke="transparent" points="310,-10 310,-30 330,-30 330,-10 310,-10"/>
<text text-anchor="start" x="333.67" y="-15.4" font-family="sans-serif" font-size="14.00"> &#160;Providers</text>
<polygon fill="#fb8072" stroke="transparent" points="406,-10 406,-30 426,-30 426,-10 406,-10"/>
<text text-anchor="start" x="429.73" y="-15.4" font-family="sans-serif" font-size="14.00"> &#160;Exports</text>
<g id="clust1" class="cluster">
<title>cluster_App2021Module</title>
<polygon fill="none" stroke="black" stroke-dasharray="1,5" points="86,-70 86,-195 410,-195 410,-70 86,-70"/>
</g>
<g id="clust2" class="cluster">
<title>cluster_App2021Module_declarations</title>
<polygon fill="none" stroke="black" points="216,-78 216,-130 402,-130 402,-78 216,-78"/>
</g>
<g id="clust4" class="cluster">
<title>cluster_App2021Module_imports</title>
<polygon fill="none" stroke="black" points="94,-78 94,-130 208,-130 208,-78 94,-78"/>
</g>
<!-- FebHelloWorldComponent -->
<g id="node1" class="node">
<title>FebHelloWorldComponent</title>
<polygon fill="#ffffb3" stroke="black" points="393.7,-122 224.3,-122 224.3,-86 393.7,-86 393.7,-122"/>
<text text-anchor="middle" x="309" y="-99.8" font-family="Times,serif" font-size="14.00">FebHelloWorldComponent</text>
</g>
<!-- App2021Module -->
<g id="node2" class="node">
<title>App2021Module</title>
<polygon fill="#8dd3c7" stroke="black" points="285.66,-187 282.66,-191 261.66,-191 258.66,-187 174.34,-187 174.34,-151 285.66,-151 285.66,-187"/>
<text text-anchor="middle" x="230" y="-164.8" font-family="Times,serif" font-size="14.00">App2021Module</text>
</g>
<!-- FebHelloWorldComponent&#45;&gt;App2021Module -->
<g id="edge1" class="edge">
<title>FebHelloWorldComponent&#45;&gt;App2021Module</title>
<path fill="none" stroke="black" d="M255.11,-122.11C255.11,-122.11 255.11,-140.99 255.11,-140.99"/>
<polygon fill="black" stroke="black" points="251.61,-140.99 255.11,-150.99 258.61,-140.99 251.61,-140.99"/>
</g>
<!-- SharedModule -->
<g id="node3" class="node">
<title>SharedModule</title>
<polygon fill="#8dd3c7" stroke="black" points="200.42,-122 197.42,-126 176.42,-126 173.42,-122 101.58,-122 101.58,-86 200.42,-86 200.42,-122"/>
<text text-anchor="middle" x="151" y="-99.8" font-family="Times,serif" font-size="14.00">SharedModule</text>
</g>
<!-- SharedModule&#45;&gt;App2021Module -->
<g id="edge2" class="edge">
<title>SharedModule&#45;&gt;App2021Module</title>
<path fill="none" stroke="black" d="M187.19,-122.11C187.19,-122.11 187.19,-140.99 187.19,-140.99"/>
<polygon fill="black" stroke="black" points="183.69,-140.99 187.19,-150.99 190.69,-140.99 183.69,-140.99"/>
</g>
</g>
</svg>
