<svg id="Layer_1" data-name="Layer 1" xmlns="http://www.w3.org/2000/svg" viewBox="0 0 885 150.21"><defs><style>.cls-1{fill:#009d00;}.cls-2{fill:#000;}</style></defs><path class="cls-1" d="M108.9,0l12.29,17L39,130.3H63.58l69.9-96.4,12.29,17-72,99.35H0L108.9,0ZM98.32,150.2h73.73l14.43-19.9,8.45-11.66-12.29-17L161.9,130.31H137.32l33-45.55-12.29-17L98.32,150.2Z"/><path class="cls-2" d="M825.13,45.12c-10.3,0-17,2.54-24.64,6.72-3.44-4.18-9-6.72-17.47-6.72-8.81,0-15.08,3.13-21.35,7.16V46.16h-19v84.22h19.71V66.92C768.54,63.63,773,62,776.15,62c8.36,0,10.3,3,10.3,14.49v53.9h19.72V76.48a81.63,81.63,0,0,0-.6-10.76A32.55,32.55,0,0,1,819.46,62c8.36,0,10.75,3,10.75,14.49v53.9h19.71V76.48c0-17.48-4.48-31.36-24.79-31.36"/><path class="cls-2" d="M540.17,92.67c0,12.25-3.14,21.36-16,21.36H509.85V62.29a124.23,124.23,0,0,1,14.34-1c12.84,0,16,9.11,16,21.36V92.67Zm-16-47.55a112.4,112.4,0,0,0-14.34,1V16.74H490.14V130.15h34.05c24,0,35.69-14.18,35.69-37.48V82.6c0-23.3-11.65-37.48-35.69-37.48"/><path class="cls-2" d="M282.93,81.1H251.27v-.59c0-11.8,6.72-18.37,16-18.37s15.68,6.72,15.68,18.37v.59Zm-15.68-36c-22.85,0-35.84,14.64-35.84,37.93v11c0,29.42,21.21,37.48,36.14,37.48,11,0,16.92-.5,24-1.67h.08c1.53-.25,3.13-.54,4.85-.85l.15,0,3-.52v-2.64c0-.22,0-.44,0-.69V115.3a1.36,1.36,0,0,0,0-.2v-2.31l-3.06.27h-.05l-.87.08-4.68.41c-6,.5-13.82,1-21.93,1-14.33,0-17.91-10.3-17.91-19v-.45h51.66V83c0-22.24-12.54-37.93-35.54-37.93"/><path class="cls-2" d="M625.28,81.1H593.62v-.59c0-11.8,6.72-18.37,16-18.37s15.68,6.72,15.68,18.37v.59Zm-15.68-36c-22.85,0-35.84,14.64-35.84,37.93v11c0,29.42,21.21,37.48,36.14,37.48,11,0,16.92-.5,24-1.67H634c1.54-.25,3.14-.54,4.86-.85l.15,0,3-.52v-2.64c0-.22,0-.44,0-.69V115.3a1.36,1.36,0,0,0,0-.2v-2.31l-3.06.27h0l-.87.08-4.69.41c-6,.5-13.81,1-21.92,1-14.33,0-17.92-10.3-17.92-19v-.45h51.67V83c0-22.24-12.54-37.93-35.54-37.93"/><path class="cls-2" d="M449.53,111.71a32.56,32.56,0,0,1-15.23,4.19c-7.47,0-10.75-2-10.75-9.26V106c0-8.36,3-12.69,16.57-12.69h9.41v18.36Zm-13.14-66.6a129.92,129.92,0,0,0-22.69,2h0l-.92.18-1.33.25,0,0-2.76.54v2.16a2.86,2.86,0,0,0,0,.42V60.2c0,.14,0,.26,0,.39v2.48l5.05-.48v0c5.27-.54,14.09-1,22.69-1,8.81,0,13.14,2.39,13.14,12.1v6.57h-9.41c-26,0-36.43,8.81-36.43,25.83v.6c0,20.16,13.44,24.93,25.83,24.93,7.17,0,14.19-2.39,21.06-6.57v5.38h18.66V73.64c0-19.12-11.65-28.53-32.85-28.53"/><path class="cls-2" d="M704.1,111.71a32.6,32.6,0,0,1-15.24,4.19c-7.46,0-10.75-2-10.75-9.26V106c0-8.36,3-12.69,16.58-12.69h9.41v18.36ZM691,45.11a129.92,129.92,0,0,0-22.69,2h0l-.91.18L666,47.5l0,0-2.76.54v2.16c0,.14,0,.27,0,.42V60.2c0,.14,0,.26,0,.39v2.48l5-.48v0c5.28-.54,14.1-1,22.69-1,8.82,0,13.15,2.39,13.15,12.1v6.57h-9.41c-26,0-36.44,8.81-36.44,25.83v.6c0,20.16,13.44,24.93,25.84,24.93,7.16,0,14.18-2.39,21-6.57v5.38h18.67V73.64c0-19.12-11.65-28.53-32.86-28.53"/><polygon class="cls-2" points="373.22 46.16 352.81 74.22 332.4 46.16 311.96 46.16 342.59 88.27 311.96 130.38 332.4 130.38 352.81 102.32 373.22 130.38 393.65 130.38 363.02 88.27 393.65 46.16 373.22 46.16 373.22 46.16"/><path class="cls-2" d="M867,49v2.72h-4V63.29h-3.2V51.74h-4V49Z"/><path class="cls-2" d="M879.53,49h4.56V63.29H881V53h0l-3.1,10.25h-3.08L871.69,53h0V63.29h-3.08V49h4.58l3.26,10.42Z"/></svg>