<?xml version="1.0" encoding="UTF-8" standalone="no"?>
<!DOCTYPE svg PUBLIC "-//W3C//DTD SVG 1.1//EN"
 "http://www.w3.org/Graphics/SVG/1.1/DTD/svg11.dtd">
<!-- Generated by graphviz version 2.46.0 (20210119.1425)
 -->
<!-- Title: dependencies Pages: 1 -->
<svg width="2861pt" height="284pt"
 viewBox="0.00 0.00 2861.00 284.00" xmlns="http://www.w3.org/2000/svg" xmlns:xlink="http://www.w3.org/1999/xlink">
<g id="graph0" class="graph" transform="scale(1 1) rotate(0) translate(4 280)">
<title>dependencies</title>
<polygon fill="white" stroke="transparent" points="-4,4 -4,-280 2857,-280 2857,4 -4,4"/>
<text text-anchor="start" x="1405.51" y="-42.4" font-family="sans-serif" font-weight="bold" font-size="14.00">Legend</text>
<polygon fill="#ffffb3" stroke="transparent" points="1192.5,-10 1192.5,-30 1212.5,-30 1212.5,-10 1192.5,-10"/>
<text text-anchor="start" x="1216.13" y="-15.4" font-family="sans-serif" font-size="14.00"> &#160;Declarations</text>
<polygon fill="#8dd3c7" stroke="transparent" points="1305.5,-10 1305.5,-30 1325.5,-30 1325.5,-10 1305.5,-10"/>
<text text-anchor="start" x="1329.23" y="-15.4" font-family="sans-serif" font-size="14.00"> &#160;Module</text>
<polygon fill="#80b1d3" stroke="transparent" points="1391.5,-10 1391.5,-30 1411.5,-30 1411.5,-10 1391.5,-10"/>
<text text-anchor="start" x="1415.28" y="-15.4" font-family="sans-serif" font-size="14.00"> &#160;Bootstrap</text>
<polygon fill="#fdb462" stroke="transparent" points="1488.5,-10 1488.5,-30 1508.5,-30 1508.5,-10 1488.5,-10"/>
<text text-anchor="start" x="1512.17" y="-15.4" font-family="sans-serif" font-size="14.00"> &#160;Providers</text>
<polygon fill="#fb8072" stroke="transparent" points="1584.5,-10 1584.5,-30 1604.5,-30 1604.5,-10 1584.5,-10"/>
<text text-anchor="start" x="1608.23" y="-15.4" font-family="sans-serif" font-size="14.00"> &#160;Exports</text>
<g id="clust1" class="cluster">
<title>cluster_AppModule</title>
<polygon fill="none" stroke="black" stroke-dasharray="1,5" points="8,-70 8,-268 2845,-268 2845,-70 8,-70"/>
</g>
<g id="clust19" class="cluster">
<title>cluster_AppModule_imports</title>
<polygon fill="none" stroke="black" points="2593,-78 2593,-130 2837,-130 2837,-78 2593,-78"/>
</g>
<g id="clust2" class="cluster">
<title>cluster_AppModule_declarations</title>
<polygon fill="none" stroke="black" points="16,-78 16,-130 2585,-130 2585,-78 16,-78"/>
</g>
<g id="clust21" class="cluster">
<title>cluster_AppModule_bootstrap</title>
<polygon fill="none" stroke="black" points="1495,-208 1495,-260 1619,-260 1619,-208 1495,-208"/>
</g>
<!-- AppComponent -->
<g id="node1" class="node">
<title>AppComponent</title>
<polygon fill="#ffffb3" stroke="black" points="2576.94,-122 2471.06,-122 2471.06,-86 2576.94,-86 2576.94,-122"/>
<text text-anchor="middle" x="2524" y="-99.8" font-family="Times,serif" font-size="14.00">AppComponent</text>
</g>
<!-- AppModule -->
<g id="node17" class="node">
<title>AppModule</title>
<polygon fill="#8dd3c7" stroke="black" points="1598.66,-187 1595.66,-191 1574.66,-191 1571.66,-187 1515.34,-187 1515.34,-151 1598.66,-151 1598.66,-187"/>
<text text-anchor="middle" x="1557" y="-164.8" font-family="Times,serif" font-size="14.00">AppModule</text>
</g>
<!-- AppComponent&#45;&gt;AppModule -->
<g id="edge1" class="edge">
<title>AppComponent&#45;&gt;AppModule</title>
<path fill="none" stroke="black" d="M2524,-122.28C2524,-143.32 2524,-175 2524,-175 2524,-175 1608.86,-175 1608.86,-175"/>
<polygon fill="black" stroke="black" points="1608.86,-171.5 1598.86,-175 1608.86,-178.5 1608.86,-171.5"/>
</g>
<!-- CommunityComponent -->
<g id="node2" class="node">
<title>CommunityComponent</title>
<polygon fill="#ffffb3" stroke="black" points="2453.23,-122 2304.77,-122 2304.77,-86 2453.23,-86 2453.23,-122"/>
<text text-anchor="middle" x="2379" y="-99.8" font-family="Times,serif" font-size="14.00">CommunityComponent</text>
</g>
<!-- CommunityComponent&#45;&gt;AppModule -->
<g id="edge2" class="edge">
<title>CommunityComponent&#45;&gt;AppModule</title>
<path fill="none" stroke="black" d="M2379,-122.31C2379,-142.15 2379,-171 2379,-171 2379,-171 1608.89,-171 1608.89,-171"/>
<polygon fill="black" stroke="black" points="1608.89,-167.5 1598.89,-171 1608.89,-174.5 1608.89,-167.5"/>
</g>
<!-- ConferenceComponent -->
<g id="node3" class="node">
<title>ConferenceComponent</title>
<polygon fill="#ffffb3" stroke="black" points="2286.85,-122 2141.15,-122 2141.15,-86 2286.85,-86 2286.85,-122"/>
<text text-anchor="middle" x="2214" y="-99.8" font-family="Times,serif" font-size="14.00">ConferenceComponent</text>
</g>
<!-- ConferenceComponent&#45;&gt;AppModule -->
<g id="edge3" class="edge">
<title>ConferenceComponent&#45;&gt;AppModule</title>
<path fill="none" stroke="black" d="M2214,-122.22C2214,-140.83 2214,-167 2214,-167 2214,-167 1608.85,-167 1608.85,-167"/>
<polygon fill="black" stroke="black" points="1608.85,-163.5 1598.85,-167 1608.85,-170.5 1608.85,-163.5"/>
</g>
<!-- CopyrightComponent -->
<g id="node4" class="node">
<title>CopyrightComponent</title>
<polygon fill="#ffffb3" stroke="black" points="2123.11,-122 1984.89,-122 1984.89,-86 2123.11,-86 2123.11,-122"/>
<text text-anchor="middle" x="2054" y="-99.8" font-family="Times,serif" font-size="14.00">CopyrightComponent</text>
</g>
<!-- CopyrightComponent&#45;&gt;AppModule -->
<g id="edge4" class="edge">
<title>CopyrightComponent&#45;&gt;AppModule</title>
<path fill="none" stroke="black" d="M2054,-122.02C2054,-139.37 2054,-163 2054,-163 2054,-163 1608.95,-163 1608.95,-163"/>
<polygon fill="black" stroke="black" points="1608.95,-159.5 1598.95,-163 1608.95,-166.5 1608.95,-159.5"/>
</g>
<!-- DiscordComponent -->
<g id="node5" class="node">
<title>DiscordComponent</title>
<polygon fill="#ffffb3" stroke="black" points="1966.65,-122 1841.35,-122 1841.35,-86 1966.65,-86 1966.65,-122"/>
<text text-anchor="middle" x="1904" y="-99.8" font-family="Times,serif" font-size="14.00">DiscordComponent</text>
</g>
<!-- DiscordComponent&#45;&gt;AppModule -->
<g id="edge5" class="edge">
<title>DiscordComponent&#45;&gt;AppModule</title>
<path fill="none" stroke="black" d="M1904,-122.01C1904,-138.05 1904,-159 1904,-159 1904,-159 1608.86,-159 1608.86,-159"/>
<polygon fill="black" stroke="black" points="1608.86,-155.5 1598.86,-159 1608.86,-162.5 1608.86,-155.5"/>
</g>
<!-- FooterComponent -->
<g id="node6" class="node">
<title>FooterComponent</title>
<polygon fill="#ffffb3" stroke="black" points="1822.88,-122 1705.12,-122 1705.12,-86 1822.88,-86 1822.88,-122"/>
<text text-anchor="middle" x="1764" y="-99.8" font-family="Times,serif" font-size="14.00">FooterComponent</text>
</g>
<!-- FooterComponent&#45;&gt;AppModule -->
<g id="edge6" class="edge">
<title>FooterComponent&#45;&gt;AppModule</title>
<path fill="none" stroke="black" d="M1764,-122.12C1764,-136.78 1764,-155 1764,-155 1764,-155 1608.89,-155 1608.89,-155"/>
<polygon fill="black" stroke="black" points="1608.89,-151.5 1598.89,-155 1608.89,-158.5 1608.89,-151.5"/>
</g>
<!-- HeaderComponent -->
<g id="node7" class="node">
<title>HeaderComponent</title>
<polygon fill="#ffffb3" stroke="black" points="1686.74,-122 1565.26,-122 1565.26,-86 1686.74,-86 1686.74,-122"/>
<text text-anchor="middle" x="1626" y="-99.8" font-family="Times,serif" font-size="14.00">HeaderComponent</text>
</g>
<!-- HeaderComponent&#45;&gt;AppModule -->
<g id="edge7" class="edge">
<title>HeaderComponent&#45;&gt;AppModule</title>
<path fill="none" stroke="black" d="M1581.98,-122.11C1581.98,-122.11 1581.98,-140.99 1581.98,-140.99"/>
<polygon fill="black" stroke="black" points="1578.48,-140.99 1581.98,-150.99 1585.48,-140.99 1578.48,-140.99"/>
</g>
<!-- HomeComponent -->
<g id="node8" class="node">
<title>HomeComponent</title>
<polygon fill="#ffffb3" stroke="black" points="1546.55,-122 1431.45,-122 1431.45,-86 1546.55,-86 1546.55,-122"/>
<text text-anchor="middle" x="1489" y="-99.8" font-family="Times,serif" font-size="14.00">HomeComponent</text>
</g>
<!-- HomeComponent&#45;&gt;AppModule -->
<g id="edge8" class="edge">
<title>HomeComponent&#45;&gt;AppModule</title>
<path fill="none" stroke="black" d="M1530.97,-122.11C1530.97,-122.11 1530.97,-140.99 1530.97,-140.99"/>
<polygon fill="black" stroke="black" points="1527.47,-140.99 1530.97,-150.99 1534.47,-140.99 1527.47,-140.99"/>
</g>
<!-- MainBodyComponent -->
<g id="node9" class="node">
<title>MainBodyComponent</title>
<polygon fill="#ffffb3" stroke="black" points="1413.72,-122 1272.28,-122 1272.28,-86 1413.72,-86 1413.72,-122"/>
<text text-anchor="middle" x="1343" y="-99.8" font-family="Times,serif" font-size="14.00">MainBodyComponent</text>
</g>
<!-- MainBodyComponent&#45;&gt;AppModule -->
<g id="edge9" class="edge">
<title>MainBodyComponent&#45;&gt;AppModule</title>
<path fill="none" stroke="black" d="M1343,-122.12C1343,-136.78 1343,-155 1343,-155 1343,-155 1505.23,-155 1505.23,-155"/>
<polygon fill="black" stroke="black" points="1505.23,-158.5 1515.23,-155 1505.23,-151.5 1505.23,-158.5"/>
</g>
<!-- NotFound404Component -->
<g id="node10" class="node">
<title>NotFound404Component</title>
<polygon fill="#ffffb3" stroke="black" points="1254.61,-122 1095.39,-122 1095.39,-86 1254.61,-86 1254.61,-122"/>
<text text-anchor="middle" x="1175" y="-99.8" font-family="Times,serif" font-size="14.00">NotFound404Component</text>
</g>
<!-- NotFound404Component&#45;&gt;AppModule -->
<g id="edge10" class="edge">
<title>NotFound404Component&#45;&gt;AppModule</title>
<path fill="none" stroke="black" d="M1175,-122.01C1175,-138.05 1175,-159 1175,-159 1175,-159 1505.03,-159 1505.03,-159"/>
<polygon fill="black" stroke="black" points="1505.03,-162.5 1515.03,-159 1505.03,-155.5 1505.03,-162.5"/>
</g>
<!-- PostsFilteredByAuthorComponent -->
<g id="node11" class="node">
<title>PostsFilteredByAuthorComponent</title>
<polygon fill="#ffffb3" stroke="black" points="1077.43,-122 866.57,-122 866.57,-86 1077.43,-86 1077.43,-122"/>
<text text-anchor="middle" x="972" y="-99.8" font-family="Times,serif" font-size="14.00">PostsFilteredByAuthorComponent</text>
</g>
<!-- PostsFilteredByAuthorComponent&#45;&gt;AppModule -->
<g id="edge11" class="edge">
<title>PostsFilteredByAuthorComponent&#45;&gt;AppModule</title>
<path fill="none" stroke="black" d="M972,-122.02C972,-139.37 972,-163 972,-163 972,-163 1504.93,-163 1504.93,-163"/>
<polygon fill="black" stroke="black" points="1504.93,-166.5 1514.93,-163 1504.93,-159.5 1504.93,-166.5"/>
</g>
<!-- PostsFilteredByTagComponent -->
<g id="node12" class="node">
<title>PostsFilteredByTagComponent</title>
<polygon fill="#ffffb3" stroke="black" points="849.04,-122 656.96,-122 656.96,-86 849.04,-86 849.04,-122"/>
<text text-anchor="middle" x="753" y="-99.8" font-family="Times,serif" font-size="14.00">PostsFilteredByTagComponent</text>
</g>
<!-- PostsFilteredByTagComponent&#45;&gt;AppModule -->
<g id="edge12" class="edge">
<title>PostsFilteredByTagComponent&#45;&gt;AppModule</title>
<path fill="none" stroke="black" d="M753,-122.22C753,-140.83 753,-167 753,-167 753,-167 1505.19,-167 1505.19,-167"/>
<polygon fill="black" stroke="black" points="1505.19,-170.5 1515.19,-167 1505.19,-163.5 1505.19,-170.5"/>
</g>
<!-- PostsNoFilterComponent -->
<g id="node13" class="node">
<title>PostsNoFilterComponent</title>
<polygon fill="#ffffb3" stroke="black" points="639.33,-122 480.67,-122 480.67,-86 639.33,-86 639.33,-122"/>
<text text-anchor="middle" x="560" y="-99.8" font-family="Times,serif" font-size="14.00">PostsNoFilterComponent</text>
</g>
<!-- PostsNoFilterComponent&#45;&gt;AppModule -->
<g id="edge13" class="edge">
<title>PostsNoFilterComponent&#45;&gt;AppModule</title>
<path fill="none" stroke="black" d="M560,-122.31C560,-142.15 560,-171 560,-171 560,-171 1505.11,-171 1505.11,-171"/>
<polygon fill="black" stroke="black" points="1505.11,-174.5 1515.11,-171 1505.11,-167.5 1505.11,-174.5"/>
</g>
<!-- PrivacyPolicyComponent -->
<g id="node14" class="node">
<title>PrivacyPolicyComponent</title>
<polygon fill="#ffffb3" stroke="black" points="462.87,-122 303.13,-122 303.13,-86 462.87,-86 462.87,-122"/>
<text text-anchor="middle" x="383" y="-99.8" font-family="Times,serif" font-size="14.00">PrivacyPolicyComponent</text>
</g>
<!-- PrivacyPolicyComponent&#45;&gt;AppModule -->
<g id="edge14" class="edge">
<title>PrivacyPolicyComponent&#45;&gt;AppModule</title>
<path fill="none" stroke="black" d="M383,-122.28C383,-143.32 383,-175 383,-175 383,-175 1505.22,-175 1505.22,-175"/>
<polygon fill="black" stroke="black" points="1505.22,-178.5 1515.22,-175 1505.22,-171.5 1505.22,-178.5"/>
</g>
<!-- TeamComponent -->
<g id="node15" class="node">
<title>TeamComponent</title>
<polygon fill="#ffffb3" stroke="black" points="284.7,-122 171.3,-122 171.3,-86 284.7,-86 284.7,-122"/>
<text text-anchor="middle" x="228" y="-99.8" font-family="Times,serif" font-size="14.00">TeamComponent</text>
</g>
<!-- TeamComponent&#45;&gt;AppModule -->
<g id="edge15" class="edge">
<title>TeamComponent&#45;&gt;AppModule</title>
<path fill="none" stroke="black" d="M228,-122.16C228,-144.35 228,-179 228,-179 228,-179 1505.03,-179 1505.03,-179"/>
<polygon fill="black" stroke="black" points="1505.03,-182.5 1515.03,-179 1505.03,-175.5 1505.03,-182.5"/>
</g>
<!-- YoutubeComponent -->
<g id="node16" class="node">
<title>YoutubeComponent</title>
<polygon fill="#ffffb3" stroke="black" points="153.54,-122 24.46,-122 24.46,-86 153.54,-86 153.54,-122"/>
<text text-anchor="middle" x="89" y="-99.8" font-family="Times,serif" font-size="14.00">YoutubeComponent</text>
</g>
<!-- YoutubeComponent&#45;&gt;AppModule -->
<g id="edge16" class="edge">
<title>YoutubeComponent&#45;&gt;AppModule</title>
<path fill="none" stroke="black" d="M89,-122.32C89,-145.66 89,-183 89,-183 89,-183 1505.04,-183 1505.04,-183"/>
<polygon fill="black" stroke="black" points="1505.04,-186.5 1515.04,-183 1505.04,-179.5 1505.04,-186.5"/>
</g>
<!-- AppComponent  -->
<g id="node20" class="node">
<title>AppComponent </title>
<polygon fill="#80b1d3" stroke="black" points="1611.44,-252 1502.56,-252 1502.56,-216 1611.44,-216 1611.44,-252"/>
<text text-anchor="middle" x="1557" y="-229.8" font-family="Times,serif" font-size="14.00">AppComponent </text>
</g>
<!-- AppModule&#45;&gt;AppComponent  -->
<g id="edge19" class="edge">
<title>AppModule&#45;&gt;AppComponent </title>
<path fill="none" stroke="black" stroke-dasharray="1,5" d="M1557,-187.11C1557,-187.11 1557,-205.99 1557,-205.99"/>
<polygon fill="black" stroke="black" points="1553.5,-205.99 1557,-215.99 1560.5,-205.99 1553.5,-205.99"/>
</g>
<!-- App2021Module -->
<g id="node18" class="node">
<title>App2021Module</title>
<polygon fill="#8dd3c7" stroke="black" points="2828.66,-122 2825.66,-126 2804.66,-126 2801.66,-122 2717.34,-122 2717.34,-86 2828.66,-86 2828.66,-122"/>
<text text-anchor="middle" x="2773" y="-99.8" font-family="Times,serif" font-size="14.00">App2021Module</text>
</g>
<!-- App2021Module&#45;&gt;AppModule -->
<g id="edge17" class="edge">
<title>App2021Module&#45;&gt;AppModule</title>
<path fill="none" stroke="black" d="M2773,-122.32C2773,-145.66 2773,-183 2773,-183 2773,-183 1608.86,-183 1608.86,-183"/>
<polygon fill="black" stroke="black" points="1608.86,-179.5 1598.86,-183 1608.86,-186.5 1608.86,-179.5"/>
</g>
<!-- SharedModule -->
<g id="node19" class="node">
<title>SharedModule</title>
<polygon fill="#8dd3c7" stroke="black" points="2699.42,-122 2696.42,-126 2675.42,-126 2672.42,-122 2600.58,-122 2600.58,-86 2699.42,-86 2699.42,-122"/>
<text text-anchor="middle" x="2650" y="-99.8" font-family="Times,serif" font-size="14.00">SharedModule</text>
</g>
<!-- SharedModule&#45;&gt;AppModule -->
<g id="edge18" class="edge">
<title>SharedModule&#45;&gt;AppModule</title>
<path fill="none" stroke="black" d="M2650,-122.16C2650,-144.35 2650,-179 2650,-179 2650,-179 1608.84,-179 1608.84,-179"/>
<polygon fill="black" stroke="black" points="1608.84,-175.5 1598.84,-179 1608.84,-182.5 1608.84,-175.5"/>
</g>
</g>
</svg>
