<?xml version="1.0" encoding="UTF-8" standalone="no"?>
<!DOCTYPE svg PUBLIC "-//W3C//DTD SVG 1.1//EN"
 "http://www.w3.org/Graphics/SVG/1.1/DTD/svg11.dtd">
<!-- Generated by graphviz version 2.46.0 (20210119.1425)
 -->
<!-- Title: dependencies Pages: 1 -->
<svg width="6264pt" height="352pt"
 viewBox="0.00 0.00 6264.00 352.00" xmlns="http://www.w3.org/2000/svg" xmlns:xlink="http://www.w3.org/1999/xlink">
<g id="graph0" class="graph" transform="scale(1 1) rotate(0) translate(4 348)">
<title>dependencies</title>
<polygon fill="white" stroke="transparent" points="-4,4 -4,-348 6260,-348 6260,4 -4,4"/>
<text text-anchor="start" x="3107.01" y="-42.4" font-family="sans-serif" font-weight="bold" font-size="14.00">Legend</text>
<polygon fill="#ffffb3" stroke="transparent" points="2894,-10 2894,-30 2914,-30 2914,-10 2894,-10"/>
<text text-anchor="start" x="2917.63" y="-15.4" font-family="sans-serif" font-size="14.00"> &#160;Declarations</text>
<polygon fill="#8dd3c7" stroke="transparent" points="3007,-10 3007,-30 3027,-30 3027,-10 3007,-10"/>
<text text-anchor="start" x="3030.73" y="-15.4" font-family="sans-serif" font-size="14.00"> &#160;Module</text>
<polygon fill="#80b1d3" stroke="transparent" points="3093,-10 3093,-30 3113,-30 3113,-10 3093,-10"/>
<text text-anchor="start" x="3116.78" y="-15.4" font-family="sans-serif" font-size="14.00"> &#160;Bootstrap</text>
<polygon fill="#fdb462" stroke="transparent" points="3190,-10 3190,-30 3210,-30 3210,-10 3190,-10"/>
<text text-anchor="start" x="3213.67" y="-15.4" font-family="sans-serif" font-size="14.00"> &#160;Providers</text>
<polygon fill="#fb8072" stroke="transparent" points="3286,-10 3286,-30 3306,-30 3306,-10 3286,-10"/>
<text text-anchor="start" x="3309.73" y="-15.4" font-family="sans-serif" font-size="14.00"> &#160;Exports</text>
<g id="clust1" class="cluster">
<title>cluster_App2021Module</title>
<polygon fill="none" stroke="black" stroke-dasharray="1,5" points="8,-70 8,-198 332,-198 332,-70 8,-70"/>
</g>
<g id="clust2" class="cluster">
<title>cluster_App2021Module_declarations</title>
<polygon fill="none" stroke="black" points="16,-78 16,-130 202,-130 202,-78 16,-78"/>
</g>
<g id="clust4" class="cluster">
<title>cluster_App2021Module_imports</title>
<polygon fill="none" stroke="black" points="210,-78 210,-130 324,-130 324,-78 210,-78"/>
</g>
<g id="clust8" class="cluster">
<title>cluster_AppModule</title>
<polygon fill="none" stroke="black" stroke-dasharray="1,5" points="3663,-138 3663,-336 6248,-336 6248,-138 3663,-138"/>
</g>
<g id="clust9" class="cluster">
<title>cluster_AppModule_declarations</title>
<polygon fill="none" stroke="black" points="3671,-146 3671,-198 6240,-198 6240,-146 3671,-146"/>
</g>
<g id="clust28" class="cluster">
<title>cluster_AppModule_bootstrap</title>
<polygon fill="none" stroke="black" points="4852,-276 4852,-328 4976,-328 4976,-276 4852,-276"/>
</g>
<g id="clust42" class="cluster">
<title>cluster_SharedModule</title>
<polygon fill="none" stroke="black" stroke-dasharray="1,5" points="340,-138 340,-206 3655,-206 3655,-138 340,-138"/>
</g>
<g id="clust43" class="cluster">
<title>cluster_SharedModule_declarations</title>
<polygon fill="none" stroke="black" points="2166,-146 2166,-198 3647,-198 3647,-146 2166,-146"/>
</g>
<g id="clust52" class="cluster">
<title>cluster_SharedModule_imports</title>
<polygon fill="none" stroke="black" points="2014,-146 2014,-198 2158,-198 2158,-146 2014,-146"/>
</g>
<g id="clust53" class="cluster">
<title>cluster_SharedModule_exports</title>
<polygon fill="none" stroke="black" points="348,-146 348,-198 2006,-198 2006,-146 348,-146"/>
</g>
<!-- FebHelloWorldComponent -->
<g id="node1" class="node">
<title>FebHelloWorldComponent</title>
<polygon fill="#ffffb3" stroke="black" points="193.7,-122 24.3,-122 24.3,-86 193.7,-86 193.7,-122"/>
<text text-anchor="middle" x="109" y="-99.8" font-family="Times,serif" font-size="14.00">FebHelloWorldComponent</text>
</g>
<!-- App2021Module -->
<g id="node2" class="node">
<title>App2021Module</title>
<polygon fill="#8dd3c7" stroke="black" points="293.66,-190 290.66,-194 269.66,-194 266.66,-190 182.34,-190 182.34,-154 293.66,-154 293.66,-190"/>
<text text-anchor="middle" x="238" y="-167.8" font-family="Times,serif" font-size="14.00">App2021Module</text>
</g>
<!-- FebHelloWorldComponent&#45;&gt;App2021Module -->
<g id="edge1" class="edge">
<title>FebHelloWorldComponent&#45;&gt;App2021Module</title>
<path fill="none" stroke="black" d="M187.89,-122.22C187.89,-122.22 187.89,-143.73 187.89,-143.73"/>
<polygon fill="black" stroke="black" points="184.39,-143.73 187.89,-153.73 191.39,-143.73 184.39,-143.73"/>
</g>
<!-- AppModule -->
<g id="node20" class="node">
<title>AppModule</title>
<polygon fill="#8dd3c7" stroke="black" points="4955.66,-255 4952.66,-259 4931.66,-259 4928.66,-255 4872.34,-255 4872.34,-219 4955.66,-219 4955.66,-255"/>
<text text-anchor="middle" x="4914" y="-232.8" font-family="Times,serif" font-size="14.00">AppModule</text>
</g>
<!-- App2021Module&#45;&gt;AppModule -->
<g id="edge19" class="edge">
<title>App2021Module&#45;&gt;AppModule</title>
<path fill="none" stroke="black" d="M238,-190.32C238,-213.66 238,-251 238,-251 238,-251 4862.15,-251 4862.15,-251"/>
<polygon fill="black" stroke="black" points="4862.15,-254.5 4872.15,-251 4862.15,-247.5 4862.15,-254.5"/>
</g>
<!-- SharedModule -->
<g id="node3" class="node">
<title>SharedModule</title>
<polygon fill="#8dd3c7" stroke="black" points="316.42,-122 313.42,-126 292.42,-126 289.42,-122 217.58,-122 217.58,-86 316.42,-86 316.42,-122"/>
<text text-anchor="middle" x="267" y="-99.8" font-family="Times,serif" font-size="14.00">SharedModule</text>
</g>
<!-- SharedModule&#45;&gt;App2021Module -->
<g id="edge2" class="edge">
<title>SharedModule&#45;&gt;App2021Module</title>
<path fill="none" stroke="black" d="M255.81,-122.22C255.81,-122.22 255.81,-143.73 255.81,-143.73"/>
<polygon fill="black" stroke="black" points="252.31,-143.73 255.81,-153.73 259.31,-143.73 252.31,-143.73"/>
</g>
<!-- SharedModule&#45;&gt;AppModule -->
<g id="edge20" class="edge">
<title>SharedModule&#45;&gt;AppModule</title>
<path fill="none" stroke="black" d="M301.29,-122.11C301.29,-160.59 301.29,-247 301.29,-247 301.29,-247 4862,-247 4862,-247"/>
<polygon fill="black" stroke="black" points="4862,-250.5 4872,-247 4862,-243.5 4862,-250.5"/>
</g>
<!-- AppRoutingModule  -->
<g id="node31" class="node">
<title>AppRoutingModule </title>
<polygon fill="#fb8072" stroke="black" points="1998.27,-190 1865.73,-190 1865.73,-154 1998.27,-154 1998.27,-190"/>
<text text-anchor="middle" x="1932" y="-167.8" font-family="Times,serif" font-size="14.00">AppRoutingModule </text>
</g>
<!-- SharedModule&#45;&gt;AppRoutingModule  -->
<g id="edge31" class="edge">
<title>SharedModule&#45;&gt;AppRoutingModule </title>
<path fill="none" stroke="black" stroke-dasharray="5,2" d="M316.38,-106C592.41,-106 1932,-106 1932,-106 1932,-106 1932,-143.97 1932,-143.97"/>
<polygon fill="black" stroke="black" points="1928.5,-143.97 1932,-153.97 1935.5,-143.97 1928.5,-143.97"/>
</g>
<!-- AuthorCardComponent  -->
<g id="node32" class="node">
<title>AuthorCardComponent </title>
<polygon fill="#fb8072" stroke="black" points="1847.7,-190 1696.3,-190 1696.3,-154 1847.7,-154 1847.7,-190"/>
<text text-anchor="middle" x="1772" y="-167.8" font-family="Times,serif" font-size="14.00">AuthorCardComponent </text>
</g>
<!-- SharedModule&#45;&gt;AuthorCardComponent  -->
<g id="edge32" class="edge">
<title>SharedModule&#45;&gt;AuthorCardComponent </title>
<path fill="none" stroke="black" stroke-dasharray="5,2" d="M316.22,-108C575.6,-108 1772,-108 1772,-108 1772,-108 1772,-143.83 1772,-143.83"/>
<polygon fill="black" stroke="black" points="1768.5,-143.83 1772,-153.83 1775.5,-143.83 1768.5,-143.83"/>
</g>
<!-- PostBodyComponent  -->
<g id="node33" class="node">
<title>PostBodyComponent </title>
<polygon fill="#fb8072" stroke="black" points="1678.79,-190 1539.21,-190 1539.21,-154 1678.79,-154 1678.79,-190"/>
<text text-anchor="middle" x="1609" y="-167.8" font-family="Times,serif" font-size="14.00">PostBodyComponent </text>
</g>
<!-- SharedModule&#45;&gt;PostBodyComponent  -->
<g id="edge33" class="edge">
<title>SharedModule&#45;&gt;PostBodyComponent </title>
<path fill="none" stroke="black" stroke-dasharray="5,2" d="M316.35,-110C558.47,-110 1609,-110 1609,-110 1609,-110 1609,-143.73 1609,-143.73"/>
<polygon fill="black" stroke="black" points="1605.5,-143.73 1609,-153.73 1612.5,-143.73 1605.5,-143.73"/>
</g>
<!-- PostComponent  -->
<g id="node34" class="node">
<title>PostComponent </title>
<polygon fill="#fb8072" stroke="black" points="1521.45,-190 1412.55,-190 1412.55,-154 1521.45,-154 1521.45,-190"/>
<text text-anchor="middle" x="1467" y="-167.8" font-family="Times,serif" font-size="14.00">PostComponent </text>
</g>
<!-- SharedModule&#45;&gt;PostComponent  -->
<g id="edge34" class="edge">
<title>SharedModule&#45;&gt;PostComponent </title>
<path fill="none" stroke="black" stroke-dasharray="5,2" d="M316.28,-112C542.09,-112 1467,-112 1467,-112 1467,-112 1467,-144 1467,-144"/>
<polygon fill="black" stroke="black" points="1463.5,-144 1467,-154 1470.5,-144 1463.5,-144"/>
</g>
<!-- PostInventoryDisplayComponent  -->
<g id="node35" class="node">
<title>PostInventoryDisplayComponent </title>
<polygon fill="#fb8072" stroke="black" points="1394.42,-190 1187.58,-190 1187.58,-154 1394.42,-154 1394.42,-190"/>
<text text-anchor="middle" x="1291" y="-167.8" font-family="Times,serif" font-size="14.00">PostInventoryDisplayComponent </text>
</g>
<!-- SharedModule&#45;&gt;PostInventoryDisplayComponent  -->
<g id="edge35" class="edge">
<title>SharedModule&#45;&gt;PostInventoryDisplayComponent </title>
<path fill="none" stroke="black" stroke-dasharray="5,2" d="M316.39,-114C520.94,-114 1291,-114 1291,-114 1291,-114 1291,-143.97 1291,-143.97"/>
<polygon fill="black" stroke="black" points="1287.5,-143.97 1291,-153.97 1294.5,-143.97 1287.5,-143.97"/>
</g>
<!-- PostSidebarComponent  -->
<g id="node36" class="node">
<title>PostSidebarComponent </title>
<polygon fill="#fb8072" stroke="black" points="1169.71,-190 1018.29,-190 1018.29,-154 1169.71,-154 1169.71,-190"/>
<text text-anchor="middle" x="1094" y="-167.8" font-family="Times,serif" font-size="14.00">PostSidebarComponent </text>
</g>
<!-- SharedModule&#45;&gt;PostSidebarComponent  -->
<g id="edge36" class="edge">
<title>SharedModule&#45;&gt;PostSidebarComponent </title>
<path fill="none" stroke="black" stroke-dasharray="5,2" d="M316.26,-116C494.29,-116 1094,-116 1094,-116 1094,-116 1094,-143.97 1094,-143.97"/>
<polygon fill="black" stroke="black" points="1090.5,-143.97 1094,-153.97 1097.5,-143.97 1090.5,-143.97"/>
</g>
<!-- PostsCardCompactComponent  -->
<g id="node37" class="node">
<title>PostsCardCompactComponent </title>
<polygon fill="#fb8072" stroke="black" points="1000.15,-190 807.85,-190 807.85,-154 1000.15,-154 1000.15,-190"/>
<text text-anchor="middle" x="904" y="-167.8" font-family="Times,serif" font-size="14.00">PostsCardCompactComponent </text>
</g>
<!-- SharedModule&#45;&gt;PostsCardCompactComponent  -->
<g id="edge37" class="edge">
<title>SharedModule&#45;&gt;PostsCardCompactComponent </title>
<path fill="none" stroke="black" stroke-dasharray="5,2" d="M316.45,-118C466.12,-118 904,-118 904,-118 904,-118 904,-143.72 904,-143.72"/>
<polygon fill="black" stroke="black" points="900.5,-143.72 904,-153.72 907.5,-143.72 900.5,-143.72"/>
</g>
<!-- PostsCardCompactHeaderComponent  -->
<g id="node38" class="node">
<title>PostsCardCompactHeaderComponent </title>
<polygon fill="#fb8072" stroke="black" points="790.07,-190 557.93,-190 557.93,-154 790.07,-154 790.07,-190"/>
<text text-anchor="middle" x="674" y="-167.8" font-family="Times,serif" font-size="14.00">PostsCardCompactHeaderComponent </text>
</g>
<!-- SharedModule&#45;&gt;PostsCardCompactHeaderComponent  -->
<g id="edge38" class="edge">
<title>SharedModule&#45;&gt;PostsCardCompactHeaderComponent </title>
<path fill="none" stroke="black" stroke-dasharray="5,2" d="M316.5,-120C424.97,-120 674,-120 674,-120 674,-120 674,-143.81 674,-143.81"/>
<polygon fill="black" stroke="black" points="670.5,-143.81 674,-153.81 677.5,-143.81 670.5,-143.81"/>
</g>
<!-- PostsCardNormalComponent  -->
<g id="node39" class="node">
<title>PostsCardNormalComponent </title>
<polygon fill="#fb8072" stroke="black" points="540.37,-190 355.63,-190 355.63,-154 540.37,-154 540.37,-190"/>
<text text-anchor="middle" x="448" y="-167.8" font-family="Times,serif" font-size="14.00">PostsCardNormalComponent </text>
</g>
<!-- SharedModule&#45;&gt;PostsCardNormalComponent  -->
<g id="edge39" class="edge">
<title>SharedModule&#45;&gt;PostsCardNormalComponent </title>
<path fill="none" stroke="black" stroke-dasharray="5,2" d="M308.75,-122.22C308.75,-142.37 308.75,-172 308.75,-172 308.75,-172 345.51,-172 345.51,-172"/>
<polygon fill="black" stroke="black" points="345.51,-175.5 355.51,-172 345.51,-168.5 345.51,-175.5"/>
</g>
<!-- AppComponent -->
<g id="node4" class="node">
<title>AppComponent</title>
<polygon fill="#ffffb3" stroke="black" points="6231.94,-190 6126.06,-190 6126.06,-154 6231.94,-154 6231.94,-190"/>
<text text-anchor="middle" x="6179" y="-167.8" font-family="Times,serif" font-size="14.00">AppComponent</text>
</g>
<!-- AppComponent&#45;&gt;AppModule -->
<g id="edge3" class="edge">
<title>AppComponent&#45;&gt;AppModule</title>
<path fill="none" stroke="black" d="M6179,-190.32C6179,-213.66 6179,-251 6179,-251 6179,-251 4965.73,-251 4965.73,-251"/>
<polygon fill="black" stroke="black" points="4965.73,-247.5 4955.73,-251 4965.73,-254.5 4965.73,-247.5"/>
</g>
<!-- CommunityComponent -->
<g id="node5" class="node">
<title>CommunityComponent</title>
<polygon fill="#ffffb3" stroke="black" points="6108.23,-190 5959.77,-190 5959.77,-154 6108.23,-154 6108.23,-190"/>
<text text-anchor="middle" x="6034" y="-167.8" font-family="Times,serif" font-size="14.00">CommunityComponent</text>
</g>
<!-- CommunityComponent&#45;&gt;AppModule -->
<g id="edge4" class="edge">
<title>CommunityComponent&#45;&gt;AppModule</title>
<path fill="none" stroke="black" d="M6034,-190.16C6034,-212.35 6034,-247 6034,-247 6034,-247 4965.86,-247 4965.86,-247"/>
<polygon fill="black" stroke="black" points="4965.86,-243.5 4955.86,-247 4965.86,-250.5 4965.86,-243.5"/>
</g>
<!-- ConferenceComponent -->
<g id="node6" class="node">
<title>ConferenceComponent</title>
<polygon fill="#ffffb3" stroke="black" points="5941.85,-190 5796.15,-190 5796.15,-154 5941.85,-154 5941.85,-190"/>
<text text-anchor="middle" x="5869" y="-167.8" font-family="Times,serif" font-size="14.00">ConferenceComponent</text>
</g>
<!-- ConferenceComponent&#45;&gt;AppModule -->
<g id="edge5" class="edge">
<title>ConferenceComponent&#45;&gt;AppModule</title>
<path fill="none" stroke="black" d="M5869,-190.28C5869,-211.32 5869,-243 5869,-243 5869,-243 4965.96,-243 4965.96,-243"/>
<polygon fill="black" stroke="black" points="4965.96,-239.5 4955.96,-243 4965.96,-246.5 4965.96,-239.5"/>
</g>
<!-- CopyrightComponent -->
<g id="node7" class="node">
<title>CopyrightComponent</title>
<polygon fill="#ffffb3" stroke="black" points="5778.11,-190 5639.89,-190 5639.89,-154 5778.11,-154 5778.11,-190"/>
<text text-anchor="middle" x="5709" y="-167.8" font-family="Times,serif" font-size="14.00">CopyrightComponent</text>
</g>
<!-- CopyrightComponent&#45;&gt;AppModule -->
<g id="edge6" class="edge">
<title>CopyrightComponent&#45;&gt;AppModule</title>
<path fill="none" stroke="black" d="M5709,-190.31C5709,-210.15 5709,-239 5709,-239 5709,-239 4965.9,-239 4965.9,-239"/>
<polygon fill="black" stroke="black" points="4965.9,-235.5 4955.9,-239 4965.9,-242.5 4965.9,-235.5"/>
</g>
<!-- DiscordComponent -->
<g id="node8" class="node">
<title>DiscordComponent</title>
<polygon fill="#ffffb3" stroke="black" points="5621.65,-190 5496.35,-190 5496.35,-154 5621.65,-154 5621.65,-190"/>
<text text-anchor="middle" x="5559" y="-167.8" font-family="Times,serif" font-size="14.00">DiscordComponent</text>
</g>
<!-- DiscordComponent&#45;&gt;AppModule -->
<g id="edge7" class="edge">
<title>DiscordComponent&#45;&gt;AppModule</title>
<path fill="none" stroke="black" d="M5559,-190.22C5559,-208.83 5559,-235 5559,-235 5559,-235 4965.82,-235 4965.82,-235"/>
<polygon fill="black" stroke="black" points="4965.82,-231.5 4955.82,-235 4965.82,-238.5 4965.82,-231.5"/>
</g>
<!-- FooterComponent -->
<g id="node9" class="node">
<title>FooterComponent</title>
<polygon fill="#ffffb3" stroke="black" points="5477.88,-190 5360.12,-190 5360.12,-154 5477.88,-154 5477.88,-190"/>
<text text-anchor="middle" x="5419" y="-167.8" font-family="Times,serif" font-size="14.00">FooterComponent</text>
</g>
<!-- FooterComponent&#45;&gt;AppModule -->
<g id="edge8" class="edge">
<title>FooterComponent&#45;&gt;AppModule</title>
<path fill="none" stroke="black" d="M5419,-190.02C5419,-207.37 5419,-231 5419,-231 5419,-231 4965.76,-231 4965.76,-231"/>
<polygon fill="black" stroke="black" points="4965.76,-227.5 4955.76,-231 4965.76,-234.5 4965.76,-227.5"/>
</g>
<!-- HeaderComponent -->
<g id="node10" class="node">
<title>HeaderComponent</title>
<polygon fill="#ffffb3" stroke="black" points="5341.74,-190 5220.26,-190 5220.26,-154 5341.74,-154 5341.74,-190"/>
<text text-anchor="middle" x="5281" y="-167.8" font-family="Times,serif" font-size="14.00">HeaderComponent</text>
</g>
<!-- HeaderComponent&#45;&gt;AppModule -->
<g id="edge9" class="edge">
<title>HeaderComponent&#45;&gt;AppModule</title>
<path fill="none" stroke="black" d="M5281,-190.01C5281,-206.05 5281,-227 5281,-227 5281,-227 4965.74,-227 4965.74,-227"/>
<polygon fill="black" stroke="black" points="4965.74,-223.5 4955.74,-227 4965.74,-230.5 4965.74,-223.5"/>
</g>
<!-- HomeComponent -->
<g id="node11" class="node">
<title>HomeComponent</title>
<polygon fill="#ffffb3" stroke="black" points="5201.55,-190 5086.45,-190 5086.45,-154 5201.55,-154 5201.55,-190"/>
<text text-anchor="middle" x="5144" y="-167.8" font-family="Times,serif" font-size="14.00">HomeComponent</text>
</g>
<!-- HomeComponent&#45;&gt;AppModule -->
<g id="edge10" class="edge">
<title>HomeComponent&#45;&gt;AppModule</title>
<path fill="none" stroke="black" d="M5144,-190.12C5144,-204.78 5144,-223 5144,-223 5144,-223 4965.92,-223 4965.92,-223"/>
<polygon fill="black" stroke="black" points="4965.92,-219.5 4955.92,-223 4965.92,-226.5 4965.92,-219.5"/>
</g>
<!-- MainBodyComponent -->
<g id="node12" class="node">
<title>MainBodyComponent</title>
<polygon fill="#ffffb3" stroke="black" points="5068.72,-190 4927.28,-190 4927.28,-154 5068.72,-154 5068.72,-190"/>
<text text-anchor="middle" x="4998" y="-167.8" font-family="Times,serif" font-size="14.00">MainBodyComponent</text>
</g>
<!-- MainBodyComponent&#45;&gt;AppModule -->
<g id="edge11" class="edge">
<title>MainBodyComponent&#45;&gt;AppModule</title>
<path fill="none" stroke="black" d="M4941.61,-190.11C4941.61,-190.11 4941.61,-208.99 4941.61,-208.99"/>
<polygon fill="black" stroke="black" points="4938.11,-208.99 4941.61,-218.99 4945.11,-208.99 4938.11,-208.99"/>
</g>
<!-- NotFound404Component -->
<g id="node13" class="node">
<title>NotFound404Component</title>
<polygon fill="#ffffb3" stroke="black" points="4909.61,-190 4750.39,-190 4750.39,-154 4909.61,-154 4909.61,-190"/>
<text text-anchor="middle" x="4830" y="-167.8" font-family="Times,serif" font-size="14.00">NotFound404Component</text>
</g>
<!-- NotFound404Component&#45;&gt;AppModule -->
<g id="edge12" class="edge">
<title>NotFound404Component&#45;&gt;AppModule</title>
<path fill="none" stroke="black" d="M4890.86,-190.11C4890.86,-190.11 4890.86,-208.99 4890.86,-208.99"/>
<polygon fill="black" stroke="black" points="4887.36,-208.99 4890.86,-218.99 4894.36,-208.99 4887.36,-208.99"/>
</g>
<!-- PostsFilteredByAuthorComponent -->
<g id="node14" class="node">
<title>PostsFilteredByAuthorComponent</title>
<polygon fill="#ffffb3" stroke="black" points="4732.43,-190 4521.57,-190 4521.57,-154 4732.43,-154 4732.43,-190"/>
<text text-anchor="middle" x="4627" y="-167.8" font-family="Times,serif" font-size="14.00">PostsFilteredByAuthorComponent</text>
</g>
<!-- PostsFilteredByAuthorComponent&#45;&gt;AppModule -->
<g id="edge13" class="edge">
<title>PostsFilteredByAuthorComponent&#45;&gt;AppModule</title>
<path fill="none" stroke="black" d="M4627,-190.12C4627,-204.78 4627,-223 4627,-223 4627,-223 4862.27,-223 4862.27,-223"/>
<polygon fill="black" stroke="black" points="4862.27,-226.5 4872.27,-223 4862.27,-219.5 4862.27,-226.5"/>
</g>
<!-- PostsFilteredByTagComponent -->
<g id="node15" class="node">
<title>PostsFilteredByTagComponent</title>
<polygon fill="#ffffb3" stroke="black" points="4504.04,-190 4311.96,-190 4311.96,-154 4504.04,-154 4504.04,-190"/>
<text text-anchor="middle" x="4408" y="-167.8" font-family="Times,serif" font-size="14.00">PostsFilteredByTagComponent</text>
</g>
<!-- PostsFilteredByTagComponent&#45;&gt;AppModule -->
<g id="edge14" class="edge">
<title>PostsFilteredByTagComponent&#45;&gt;AppModule</title>
<path fill="none" stroke="black" d="M4408,-190.01C4408,-206.05 4408,-227 4408,-227 4408,-227 4862.16,-227 4862.16,-227"/>
<polygon fill="black" stroke="black" points="4862.16,-230.5 4872.16,-227 4862.16,-223.5 4862.16,-230.5"/>
</g>
<!-- PostsNoFilterComponent -->
<g id="node16" class="node">
<title>PostsNoFilterComponent</title>
<polygon fill="#ffffb3" stroke="black" points="4294.33,-190 4135.67,-190 4135.67,-154 4294.33,-154 4294.33,-190"/>
<text text-anchor="middle" x="4215" y="-167.8" font-family="Times,serif" font-size="14.00">PostsNoFilterComponent</text>
</g>
<!-- PostsNoFilterComponent&#45;&gt;AppModule -->
<g id="edge15" class="edge">
<title>PostsNoFilterComponent&#45;&gt;AppModule</title>
<path fill="none" stroke="black" d="M4215,-190.02C4215,-207.37 4215,-231 4215,-231 4215,-231 4862.11,-231 4862.11,-231"/>
<polygon fill="black" stroke="black" points="4862.11,-234.5 4872.11,-231 4862.11,-227.5 4862.11,-234.5"/>
</g>
<!-- PrivacyPolicyComponent -->
<g id="node17" class="node">
<title>PrivacyPolicyComponent</title>
<polygon fill="#ffffb3" stroke="black" points="4117.87,-190 3958.13,-190 3958.13,-154 4117.87,-154 4117.87,-190"/>
<text text-anchor="middle" x="4038" y="-167.8" font-family="Times,serif" font-size="14.00">PrivacyPolicyComponent</text>
</g>
<!-- PrivacyPolicyComponent&#45;&gt;AppModule -->
<g id="edge16" class="edge">
<title>PrivacyPolicyComponent&#45;&gt;AppModule</title>
<path fill="none" stroke="black" d="M4038,-190.22C4038,-208.83 4038,-235 4038,-235 4038,-235 4862.34,-235 4862.34,-235"/>
<polygon fill="black" stroke="black" points="4862.34,-238.5 4872.34,-235 4862.34,-231.5 4862.34,-238.5"/>
</g>
<!-- TeamComponent -->
<g id="node18" class="node">
<title>TeamComponent</title>
<polygon fill="#ffffb3" stroke="black" points="3939.7,-190 3826.3,-190 3826.3,-154 3939.7,-154 3939.7,-190"/>
<text text-anchor="middle" x="3883" y="-167.8" font-family="Times,serif" font-size="14.00">TeamComponent</text>
</g>
<!-- TeamComponent&#45;&gt;AppModule -->
<g id="edge17" class="edge">
<title>TeamComponent&#45;&gt;AppModule</title>
<path fill="none" stroke="black" d="M3883,-190.31C3883,-210.15 3883,-239 3883,-239 3883,-239 4862.31,-239 4862.31,-239"/>
<polygon fill="black" stroke="black" points="4862.31,-242.5 4872.31,-239 4862.31,-235.5 4862.31,-242.5"/>
</g>
<!-- YoutubeComponent -->
<g id="node19" class="node">
<title>YoutubeComponent</title>
<polygon fill="#ffffb3" stroke="black" points="3808.54,-190 3679.46,-190 3679.46,-154 3808.54,-154 3808.54,-190"/>
<text text-anchor="middle" x="3744" y="-167.8" font-family="Times,serif" font-size="14.00">YoutubeComponent</text>
</g>
<!-- YoutubeComponent&#45;&gt;AppModule -->
<g id="edge18" class="edge">
<title>YoutubeComponent&#45;&gt;AppModule</title>
<path fill="none" stroke="black" d="M3744,-190.28C3744,-211.32 3744,-243 3744,-243 3744,-243 4862.01,-243 4862.01,-243"/>
<polygon fill="black" stroke="black" points="4862.01,-246.5 4872.01,-243 4862.01,-239.5 4862.01,-246.5"/>
</g>
<!-- AppComponent  -->
<g id="node21" class="node">
<title>AppComponent </title>
<polygon fill="#80b1d3" stroke="black" points="4968.44,-320 4859.56,-320 4859.56,-284 4968.44,-284 4968.44,-320"/>
<text text-anchor="middle" x="4914" y="-297.8" font-family="Times,serif" font-size="14.00">AppComponent </text>
</g>
<!-- AppModule&#45;&gt;AppComponent  -->
<g id="edge21" class="edge">
<title>AppModule&#45;&gt;AppComponent </title>
<path fill="none" stroke="black" stroke-dasharray="1,5" d="M4914,-255.11C4914,-255.11 4914,-273.99 4914,-273.99"/>
<polygon fill="black" stroke="black" points="4910.5,-273.99 4914,-283.99 4917.5,-273.99 4910.5,-273.99"/>
</g>
<!-- AuthorCardComponent -->
<g id="node22" class="node">
<title>AuthorCardComponent</title>
<polygon fill="#ffffb3" stroke="black" points="3639.2,-190 3490.8,-190 3490.8,-154 3639.2,-154 3639.2,-190"/>
<text text-anchor="middle" x="3565" y="-167.8" font-family="Times,serif" font-size="14.00">AuthorCardComponent</text>
</g>
<!-- AuthorCardComponent&#45;&gt;SharedModule -->
<g id="edge22" class="edge">
<title>AuthorCardComponent&#45;&gt;SharedModule</title>
<path fill="none" stroke="black" d="M3565,-153.77C3565,-129.07 3565,-88 3565,-88 3565,-88 326.5,-88 326.5,-88"/>
<polygon fill="black" stroke="black" points="326.5,-84.5 316.5,-88 326.5,-91.5 326.5,-84.5"/>
</g>
<!-- PostBodyComponent -->
<g id="node23" class="node">
<title>PostBodyComponent</title>
<polygon fill="#ffffb3" stroke="black" points="3472.79,-190 3337.21,-190 3337.21,-154 3472.79,-154 3472.79,-190"/>
<text text-anchor="middle" x="3405" y="-167.8" font-family="Times,serif" font-size="14.00">PostBodyComponent</text>
</g>
<!-- PostBodyComponent&#45;&gt;SharedModule -->
<g id="edge23" class="edge">
<title>PostBodyComponent&#45;&gt;SharedModule</title>
<path fill="none" stroke="black" d="M3405,-153.8C3405,-129.64 3405,-90 3405,-90 3405,-90 326.29,-90 326.29,-90"/>
<polygon fill="black" stroke="black" points="326.29,-86.5 316.29,-90 326.29,-93.5 326.29,-86.5"/>
</g>
<!-- PostComponent -->
<g id="node24" class="node">
<title>PostComponent</title>
<polygon fill="#ffffb3" stroke="black" points="3318.95,-190 3213.05,-190 3213.05,-154 3318.95,-154 3318.95,-190"/>
<text text-anchor="middle" x="3266" y="-167.8" font-family="Times,serif" font-size="14.00">PostComponent</text>
</g>
<!-- PostComponent&#45;&gt;SharedModule -->
<g id="edge24" class="edge">
<title>PostComponent&#45;&gt;SharedModule</title>
<path fill="none" stroke="black" d="M3266,-153.85C3266,-130.24 3266,-92 3266,-92 3266,-92 326.24,-92 326.24,-92"/>
<polygon fill="black" stroke="black" points="326.24,-88.5 316.24,-92 326.24,-95.5 326.24,-88.5"/>
</g>
<!-- PostInventoryDisplayComponent -->
<g id="node25" class="node">
<title>PostInventoryDisplayComponent</title>
<polygon fill="#ffffb3" stroke="black" points="3195.92,-190 2992.08,-190 2992.08,-154 3195.92,-154 3195.92,-190"/>
<text text-anchor="middle" x="3094" y="-167.8" font-family="Times,serif" font-size="14.00">PostInventoryDisplayComponent</text>
</g>
<!-- PostInventoryDisplayComponent&#45;&gt;SharedModule -->
<g id="edge25" class="edge">
<title>PostInventoryDisplayComponent&#45;&gt;SharedModule</title>
<path fill="none" stroke="black" d="M3094,-153.91C3094,-130.87 3094,-94 3094,-94 3094,-94 326.37,-94 326.37,-94"/>
<polygon fill="black" stroke="black" points="326.37,-90.5 316.37,-94 326.37,-97.5 326.37,-90.5"/>
</g>
<!-- PostSidebarComponent -->
<g id="node26" class="node">
<title>PostSidebarComponent</title>
<polygon fill="#ffffb3" stroke="black" points="2974.21,-190 2825.79,-190 2825.79,-154 2974.21,-154 2974.21,-190"/>
<text text-anchor="middle" x="2900" y="-167.8" font-family="Times,serif" font-size="14.00">PostSidebarComponent</text>
</g>
<!-- PostSidebarComponent&#45;&gt;SharedModule -->
<g id="edge26" class="edge">
<title>PostSidebarComponent&#45;&gt;SharedModule</title>
<path fill="none" stroke="black" d="M2900,-153.99C2900,-131.51 2900,-96 2900,-96 2900,-96 326.38,-96 326.38,-96"/>
<polygon fill="black" stroke="black" points="326.38,-92.5 316.38,-96 326.38,-99.5 326.38,-92.5"/>
</g>
<!-- PostsCardCompactComponent -->
<g id="node27" class="node">
<title>PostsCardCompactComponent</title>
<polygon fill="#ffffb3" stroke="black" points="2808.15,-190 2619.85,-190 2619.85,-154 2808.15,-154 2808.15,-190"/>
<text text-anchor="middle" x="2714" y="-167.8" font-family="Times,serif" font-size="14.00">PostsCardCompactComponent</text>
</g>
<!-- PostsCardCompactComponent&#45;&gt;SharedModule -->
<g id="edge27" class="edge">
<title>PostsCardCompactComponent&#45;&gt;SharedModule</title>
<path fill="none" stroke="black" d="M2714,-153.71C2714,-131.79 2714,-98 2714,-98 2714,-98 326.43,-98 326.43,-98"/>
<polygon fill="black" stroke="black" points="326.43,-94.5 316.43,-98 326.43,-101.5 326.43,-94.5"/>
</g>
<!-- PostsCardCompactHeaderComponent -->
<g id="node28" class="node">
<title>PostsCardCompactHeaderComponent</title>
<polygon fill="#ffffb3" stroke="black" points="2601.56,-190 2372.44,-190 2372.44,-154 2601.56,-154 2601.56,-190"/>
<text text-anchor="middle" x="2487" y="-167.8" font-family="Times,serif" font-size="14.00">PostsCardCompactHeaderComponent</text>
</g>
<!-- PostsCardCompactHeaderComponent&#45;&gt;SharedModule -->
<g id="edge28" class="edge">
<title>PostsCardCompactHeaderComponent&#45;&gt;SharedModule</title>
<path fill="none" stroke="black" d="M2487,-153.83C2487,-132.5 2487,-100 2487,-100 2487,-100 326.22,-100 326.22,-100"/>
<polygon fill="black" stroke="black" points="326.22,-96.5 316.22,-100 326.22,-103.5 326.22,-96.5"/>
</g>
<!-- PostsCardNormalComponent -->
<g id="node29" class="node">
<title>PostsCardNormalComponent</title>
<polygon fill="#ffffb3" stroke="black" points="2354.37,-190 2173.63,-190 2173.63,-154 2354.37,-154 2354.37,-190"/>
<text text-anchor="middle" x="2264" y="-167.8" font-family="Times,serif" font-size="14.00">PostsCardNormalComponent</text>
</g>
<!-- PostsCardNormalComponent&#45;&gt;SharedModule -->
<g id="edge29" class="edge">
<title>PostsCardNormalComponent&#45;&gt;SharedModule</title>
<path fill="none" stroke="black" d="M2264,-153.97C2264,-133.23 2264,-102 2264,-102 2264,-102 326.36,-102 326.36,-102"/>
<polygon fill="black" stroke="black" points="326.36,-98.5 316.36,-102 326.36,-105.5 326.36,-98.5"/>
</g>
<!-- AppRoutingModule -->
<g id="node30" class="node">
<title>AppRoutingModule</title>
<polygon fill="#8dd3c7" stroke="black" points="2150.27,-190 2147.27,-194 2126.27,-194 2123.27,-190 2021.73,-190 2021.73,-154 2150.27,-154 2150.27,-190"/>
<text text-anchor="middle" x="2086" y="-167.8" font-family="Times,serif" font-size="14.00">AppRoutingModule</text>
</g>
<!-- AppRoutingModule&#45;&gt;SharedModule -->
<g id="edge30" class="edge">
<title>AppRoutingModule&#45;&gt;SharedModule</title>
<path fill="none" stroke="black" d="M2086,-153.78C2086,-133.63 2086,-104 2086,-104 2086,-104 326.6,-104 326.6,-104"/>
<polygon fill="black" stroke="black" points="326.6,-100.5 316.6,-104 326.6,-107.5 326.6,-100.5"/>
</g>
</g>
</svg>
